<?xml version="1.0" encoding="UTF-8"?>
<svg width="1200" height="600" viewBox="0 0 1200 600"
  xmlns="http://www.w3.org/2000/svg" role="img" aria-label="Abstract shield and network representing company overview">
  <defs>
    <linearGradient id="a1" x1="0%" x2="100%" y1="0%" y2="100%">
      <stop offset="0%" stop-color="#021f3f"/>
      <stop offset="100%" stop-color="#0b3b66"/>
    </linearGradient>
  </defs>
  <rect width="100%" height="100%" fill="url(#a1)" />
  <g opacity="0.06">
    <circle cx="220" cy="120" r="100" fill="#1976d2" />
    <circle cx="980" cy="480" r="140" fill="#43a047" />
  </g>
  <g fill="#90caf9" opacity="0.95">
    <circle cx="360" cy="240" r="6" />
    <circle cx="420" cy="200" r="6" />
    <circle cx="520" cy="260" r="6" />
  </g>
  <g stroke="#90caf9" stroke-opacity="0.5" stroke-width="1.4" fill="none">
    <path d="M360 240 L420 200 L520 260" />
  </g>
  <!-- shield motif -->
  <g transform="translate(760,120)">
    <path d="M60 0 L120 40 V110 C120 160 60 180 60 180 C60 180 0 160 0 110 V40 Z" fill="#0b2b5f" opacity="0.98"/>
    <path d="M60 12 L108 42 V102 C108 144 60 160 60 160 C60 160 12 144 12 102 V42 Z" fill="#43a047" opacity="0.9"/>
  </g>
  <text x="60" y="560" font-family="Inter, Arial" font-size="18" fill="#3e6a9b" opacity="0.05">Gue Cyber • About</text>
</svg>
